<svg width="44" height="364" viewBox="0 0 44 364" fill="none" xmlns="http://www.w3.org/2000/svg"><circle opacity=".2" cx="30" cy="14" r="14" fill="#3367F6"/><circle cx="30" cy="14" r="12" fill="#3367F6"/><path d="M21.485 5.485c-4.686 4.687-4.686 12.285 0 16.97l16.971-16.97C33.77.8 26.172.8 21.486 5.485z" fill="#0C18ED"/><circle opacity=".2" cx="30" cy="138" r="14" fill="#5EABE4"/><circle cx="30" cy="138" r="12" fill="#5EABE4"/><path d="M21.485 129.485c-4.686 4.687-4.686 12.285 0 16.971l16.971-16.971c-4.686-4.686-12.284-4.686-16.97 0z" fill="#28A0F0"/><circle opacity=".2" cx="30" cy="262" r="14" fill="#7CE956"/><circle cx="30" cy="262" r="12" fill="#7CE956"/><path d="M21.485 253.485c-4.686 4.687-4.686 12.285 0 16.971l16.971-16.971c-4.686-4.686-12.284-4.686-16.97 0z" fill="#6ADC42"/><circle opacity=".2" cx="30" cy="76" r="14" fill="#F7D658"/><circle cx="30" cy="76" r="12" fill="#EDC544"/><path d="M21.485 67.485c-4.686 4.687-4.686 12.285 0 16.97l16.971-16.97c-4.686-4.686-12.284-4.686-16.97 0z" fill="#F7D658"/><circle opacity=".2" cx="30" cy="200" r="14" fill="#36A478"/><circle cx="30" cy="200" r="12" fill="#36A478"/><path d="M21.485 191.485c-4.686 4.687-4.686 12.285 0 16.971l16.971-16.971c-4.686-4.686-12.284-4.686-16.97 0z" fill="#268660"/><circle opacity=".2" cx="30" cy="324" r="14" fill="#1AA2CD"/><circle cx="30" cy="324" r="12" fill="#1AA2CD"/><path d="M21.485 315.485c-4.686 4.687-4.686 12.285 0 16.971l16.971-16.971c-4.686-4.686-12.284-4.686-16.97 0z" fill="#258DAE"/><circle opacity=".2" cx="14" cy="40" r="14" fill="#A971E8"/><circle cx="14" cy="40" r="12" fill="#A971E8"/><path d="M5.485 31.485C.8 36.172.8 43.77 5.485 48.455l16.971-16.97c-4.686-4.686-12.284-4.686-16.97 0z" fill="#8247E5"/><circle opacity=".2" cx="14" cy="164" r="14" fill="#F77771"/><circle cx="14" cy="164" r="12" fill="#F77771"/><path d="M5.485 155.485C.8 160.172.8 167.77 5.485 172.456l16.971-16.971c-4.686-4.686-12.284-4.686-16.97 0z" fill="#D75049"/><circle opacity=".2" cx="14" cy="288" r="14" fill="#FF4E58"/><circle cx="14" cy="288" r="12" fill="#FF4E58"/><path d="M5.485 279.485C.8 284.172.8 291.77 5.485 296.456l16.971-16.971c-4.686-4.686-12.284-4.686-16.97 0z" fill="#FE0420"/><circle opacity=".2" cx="14" cy="102" r="14" fill="#627EEA"/><circle cx="14" cy="102" r="12" fill="#627EEA"/><path d="M5.485 93.485C.8 98.172.8 105.77 5.485 110.456l16.971-16.97c-4.686-4.687-12.284-4.687-16.97 0z" fill="#4163E9"/><circle opacity=".2" cx="14" cy="226" r="14" fill="#4079FF"/><circle cx="14" cy="226" r="12" fill="#4079FF"/><path d="M5.485 217.485C.8 222.172.8 229.77 5.485 234.456l16.971-16.971c-4.686-4.686-12.284-4.686-16.97 0z" fill="#1C60FF"/><circle opacity=".2" cx="14" cy="350" r="14" fill="#3367F6"/><circle cx="14" cy="350" r="12" fill="#3367F6"/><path d="M5.485 341.485C.8 346.172.8 353.77 5.485 358.456l16.971-16.971c-4.686-4.686-12.284-4.686-16.97 0z" fill="#0C18ED"/></svg>