<?xml version="1.0" standalone="no"?>
<!DOCTYPE svg PUBLIC "-//W3C//DTD SVG 20010904//EN"
 "http://www.w3.org/TR/2001/REC-SVG-20010904/DTD/svg10.dtd">
<svg version="1.0" xmlns="http://www.w3.org/2000/svg"
 width="700.000000pt" height="700.000000pt" viewBox="0 0 700.000000 700.000000"
 preserveAspectRatio="xMidYMid meet">
<metadata>
Created by potrace 1.14, written by Peter Selinger 2001-2017
</metadata>
<g transform="translate(0.000000,700.000000) scale(0.100000,-0.100000)"
fill="#000000" stroke="none">
<path d="M1220 6993 c-313 -31 -583 -153 -801 -361 -209 -199 -342 -443 -395
-727 -18 -96 -19 -192 -19 -2420 l0 -2320 23 -104 c119 -530 503 -914 1033
-1033 l104 -23 2335 0 2335 0 104 23 c531 119 914 502 1033 1033 l23 104 0
2330 c0 2211 -1 2335 -18 2420 -56 275 -173 494 -371 691 -196 195 -391 302
-671 367 -90 21 -91 21 -2385 23 -1262 0 -2311 -1 -2330 -3z m4007 -1769 c52
-39 75 -83 70 -136 -4 -44 -18 -67 -165 -260 -689 -908 -981 -1285 -1011
-1305 -40 -27 -89 -29 -134 -7 -18 9 -439 262 -937 562 -498 300 -1066 642
-1263 761 -260 156 -363 223 -373 243 -18 35 -18 72 1 108 33 64 -111 59 1927
57 l1857 -2 28 -21z m-962 -2491 c693 -417 1272 -767 1286 -776 49 -32 63 -96
32 -148 -38 -63 99 -59 -1917 -59 -1529 0 -1842 2 -1869 14 -65 27 -106 101
-93 169 9 49 1140 1526 1186 1550 23 12 49 17 75 14 32 -3 307 -165 1300 -764z"/>
</g>
</svg>
